<svg width="150" height="150" viewBox="0 0 150 150" fill="none" xmlns="http://www.w3.org/2000/svg">
<path d="M75 150C116.421 150 150 116.421 150 75C150 33.5786 116.421 0 75 0C33.5786 0 0 33.5786 0 75C0 116.421 33.5786 150 75 150Z" fill="url(#paint0_linear)"/>
<path d="M54.0562 79.5469H60.1031V80.639C60.1031 85.0547 59.2969 87.9141 57.6844 89.2078C56.0719 90.5016 52.5094 91.1484 46.9875 91.1484C40.7203 91.1484 36.8672 90.1266 35.4234 88.0828C33.9797 86.0297 33.2625 80.5641 33.2625 71.6578C33.2625 66.4172 34.2375 62.9719 36.1922 61.3219C38.1469 59.6719 42.2297 58.8469 48.45 58.8469C52.9781 58.8469 55.9969 59.5266 57.5203 60.8812C59.0391 62.2406 59.7984 64.9312 59.7984 68.9672L59.8219 69.6844H53.775V68.8734C53.775 66.7969 53.3859 65.4609 52.6031 64.8797C51.8203 64.2984 50.0297 64.0078 47.2406 64.0078C43.5 64.0078 41.2594 64.4672 40.5047 65.3765C39.75 66.2906 39.375 69.0047 39.375 73.5187C39.375 79.5984 39.7125 83.1937 40.3875 84.3094C41.0672 85.425 43.2422 85.9828 46.9312 85.9828C49.9266 85.9828 51.8672 85.6781 52.7578 85.0547C53.6484 84.4359 54.0937 83.0672 54.0937 80.9625L54.0562 79.5469Z" fill="white"/>
<path d="M87.4547 68.3813H81.5672C81.539 68.0906 81.5203 67.8703 81.5203 67.7297C81.3844 65.9438 80.9906 64.8234 80.339 64.3641C79.6875 63.9094 78.15 63.6797 75.7359 63.6797C72.8812 63.6797 71.0156 63.9422 70.1437 64.4672C69.2625 64.9922 68.8312 66.1078 68.8312 67.7953C68.8312 69.7969 69.1875 70.9969 69.9 71.4C70.6125 71.8078 72.9703 72.1125 76.9687 72.3328C81.7031 72.5953 84.7593 73.2703 86.1515 74.3578C87.5343 75.4406 88.2281 77.7 88.2281 81.1219C88.2281 85.3406 87.4125 88.0641 85.7859 89.2969C84.1547 90.5344 80.5687 91.1484 75.0187 91.1484C70.0265 91.1484 66.7125 90.5438 65.0765 89.3344C63.4406 88.125 62.625 85.6781 62.625 81.9844L62.6015 80.8219H68.4609L68.4843 81.5016C68.4843 83.7188 68.8734 85.0734 69.6468 85.5703C70.425 86.0625 72.539 86.3109 75.9984 86.3109C78.689 86.3109 80.4094 86.025 81.164 85.4484C81.9047 84.8766 82.2797 83.55 82.2797 81.4734C82.2797 79.9359 81.9937 78.9141 81.4265 78.4125C80.8594 77.9109 79.6406 77.6016 77.7656 77.4984L74.4375 77.2875C69.4172 76.9969 66.2015 76.2938 64.8093 75.1969C63.4125 74.0953 62.714 71.7328 62.714 68.1C62.714 64.3922 63.5578 61.9266 65.2406 60.6938C66.9187 59.4563 70.2797 58.8422 75.3187 58.8422C80.1 58.8422 83.3109 59.4047 84.9703 60.5391C86.6344 61.6688 87.4594 63.8813 87.4594 67.1672V68.3813H87.4547Z" fill="white"/>
<path d="M115.973 68.3813H110.086C110.053 68.0906 110.039 67.8703 110.039 67.7297C109.903 65.9438 109.505 64.8234 108.853 64.3641C108.202 63.9094 106.664 63.6797 104.25 63.6797C101.4 63.6797 99.5297 63.9422 98.6578 64.4672C97.786 64.9922 97.3453 66.1078 97.3453 67.7953C97.3453 69.7969 97.7016 70.9969 98.4188 71.4C99.1266 71.8078 101.484 72.1125 105.488 72.3328C110.217 72.5953 113.278 73.2703 114.666 74.3578C116.053 75.4453 116.742 77.7 116.742 81.1219C116.742 85.3406 115.931 88.0641 114.3 89.2969C112.669 90.5344 109.083 91.1484 103.528 91.1484C98.5406 91.1484 95.2266 90.5438 93.5859 89.3344C91.95 88.125 91.1344 85.6781 91.1344 81.9844L91.1109 80.8219H96.975L96.9985 81.5016C96.9985 83.7188 97.3828 85.0734 98.1609 85.5703C98.9344 86.0625 101.048 86.3109 104.508 86.3109C107.203 86.3109 108.923 86.025 109.673 85.4484C110.414 84.8766 110.789 83.55 110.789 81.4734C110.789 79.9359 110.503 78.9141 109.936 78.4125C109.373 77.9109 108.15 77.6016 106.275 77.4984L102.947 77.2875C97.9266 76.9969 94.7156 76.2938 93.3188 75.1969C91.9219 74.0953 91.2281 71.7328 91.2281 68.1C91.2281 64.3922 92.0672 61.9266 93.75 60.6938C95.4281 59.4563 98.7938 58.8422 103.828 58.8422C108.609 58.8422 111.825 59.4047 113.484 60.5391C115.144 61.6688 115.973 63.8813 115.973 67.1672V68.3813Z" fill="white"/>
<defs>
<linearGradient id="paint0_linear" x1="75" y1="0" x2="75" y2="150" gradientUnits="userSpaceOnUse">
<stop offset="0.0833333" stop-color="#A881FD"/>
<stop offset="1" stop-color="#FF698D"/>
</linearGradient>
</defs>
</svg>
