<svg width="150" height="150" viewBox="0 0 150 150" fill="none" xmlns="http://www.w3.org/2000/svg">
<circle cx="75" cy="75" r="75" fill="url(#paint0_linear)"/>
<g clip-path="url(#clip0)">
<path d="M74.4999 105C74.4999 113.004 68.005 119.5 60.0029 119.5C52.0009 119.5 45.506 113.004 45.506 105C45.506 96.996 52.0009 90.5 60.0029 90.5H74.4999V105Z" fill="white" stroke="#FBC4C0"/>
<path d="M45.506 75C45.506 66.996 52.0009 60.5 60.0029 60.5H74.4999V89.5H60.0029C52.0009 89.5 45.506 83.004 45.506 75Z" fill="white" stroke="#FBC4C0"/>
<path d="M45.506 45C45.506 36.9961 52.0009 30.5 60.0029 30.5H74.4999V59.5H60.0029C52.0009 59.5 45.506 53.004 45.506 45Z" fill="white" stroke="#FBC4C0"/>
<path d="M75.5 30.5H89.997C97.9991 30.5 104.494 36.9961 104.494 45C104.494 53.004 97.9991 59.5 89.997 59.5H75.5V30.5Z" fill="white" stroke="#FBC4C0"/>
<path d="M104.494 75C104.494 83.004 97.9991 89.5 89.997 89.5C81.9949 89.5 75.5 83.004 75.5 75C75.5 66.996 81.9949 60.5 89.997 60.5C97.9991 60.5 104.494 66.996 104.494 75Z" fill="white" stroke="#FBC4C0"/>
</g>
<defs>
<linearGradient id="paint0_linear" x1="75" y1="0" x2="75" y2="150" gradientUnits="userSpaceOnUse">
<stop offset="0.0833333" stop-color="#A881FD"/>
<stop offset="1" stop-color="#FF698D"/>
</linearGradient>
<clipPath id="clip0">
<rect width="60" height="90" fill="white" transform="translate(45 30)"/>
</clipPath>
</defs>
</svg>
