<svg width="150" height="150" viewBox="0 0 150 150" fill="none" xmlns="http://www.w3.org/2000/svg">
<path d="M75 150C116.421 150 150 116.421 150 75C150 33.5786 116.421 0 75 0C33.5786 0 0 33.5786 0 75C0 116.421 33.5786 150 75 150Z" fill="url(#paint0_linear)"/>
<path d="M42.7266 59.8078V90.1875H36.9609V77.0531H22.7156V90.1875H16.95V59.8078H22.7156V72.2063H36.9609V59.8078H42.7266Z" fill="white"/>
<path d="M60.1781 64.9735V90.1922H54.4125V64.9735H45.6422V59.8078H69.2625V64.9735H60.1781Z" fill="white"/>
<path d="M107.7 59.8078V90.1875H101.939V73.6266C101.939 72.3094 101.977 70.8047 102.047 69.1313L102.155 66.8625L102.267 64.6172H102.094L101.405 66.7313L100.734 68.8453C100.111 70.7438 99.6281 72.1453 99.2859 73.05L92.6062 90.1875H87.3562L80.6109 73.1813C80.2406 72.2485 79.7484 70.8469 79.1437 68.9766L78.4594 66.8625L77.7703 64.7719H77.5922L77.7 66.975L77.8125 69.2063C77.9015 70.9266 77.9437 72.4031 77.9437 73.6313V90.1922H72.1781V59.8125H81.5719L87.0047 73.8797C87.375 74.8594 87.8672 76.261 88.4719 78.0844L89.1422 80.1985L89.8265 82.2891H90.0281L90.675 80.1985L91.3453 78.1078C91.8937 76.3406 92.3719 74.9438 92.7703 73.9219L98.114 59.8078H107.7Z" fill="white"/>
<path d="M118.805 59.8078V85.0266H133.05V90.1922H113.034V59.8125H118.805V59.8078Z" fill="white"/>
<defs>
<linearGradient id="paint0_linear" x1="75" y1="0" x2="75" y2="150" gradientUnits="userSpaceOnUse">
<stop offset="0.0833333" stop-color="#A881FD"/>
<stop offset="1" stop-color="#FF698D"/>
</linearGradient>
</defs>
</svg>
