<svg width="150" height="150" viewBox="0 0 150 150" fill="none" xmlns="http://www.w3.org/2000/svg">
<circle cx="75" cy="75" r="75" fill="url(#paint0_linear)"/>
<path d="M56.1247 96.9174V81.8188C56.93 81.8973 57.8798 81.9381 58.9164 81.9381C65.234 81.9381 70.342 80.2716 73.69 77.117C76.4325 74.5116 77.9435 70.6299 77.9435 66.1874C77.9435 61.8727 76.139 57.9713 72.9957 55.4857C69.9055 53.0141 65.3646 51.8124 59.1135 51.8124C53.6984 51.8124 49.1226 52.1239 45.512 52.7385C45.2163 52.7885 45 53.0448 45 53.3448V96.9174C45 97.2572 45.2753 97.5326 45.6151 97.5326H55.5096C55.8494 97.5326 56.1247 97.2572 56.1247 96.9174ZM56.1247 72.8871V60.8469C56.7288 60.731 57.8633 60.5777 59.6371 60.5777C64.2016 60.5777 66.8193 62.7178 66.8193 66.4492C66.8193 70.577 63.8409 73.0416 58.8509 73.0416C57.6539 73.0416 56.8013 72.9944 56.1247 72.8871Z" fill="white"/>
<path d="M95.8734 76.7455C91.7969 75.3189 91.1091 74.6395 91.1091 73.6568C91.1091 71.9115 93.1044 71.651 94.2943 71.651C96.8207 71.651 99.4562 72.5988 100.945 73.4102C101.112 73.501 101.31 73.5099 101.485 73.4344C101.658 73.3586 101.788 73.207 101.835 73.0234L103.605 66.1441C103.677 65.8634 103.543 65.5703 103.284 65.4409C101.447 64.5226 98.0352 63.5411 93.9663 63.5411C85.9268 63.5411 80.3119 68.1051 80.3119 74.6294C80.2576 77.8126 81.8662 82.1706 89.8403 84.8548C93.7136 86.1461 94.1375 86.8171 94.1375 87.9408C94.1375 88.4531 94.1375 90.012 90.4938 90.012C87.7641 90.012 84.0787 88.7997 82.2294 87.6768C82.0616 87.5751 81.8564 87.5591 81.6753 87.6339C81.4947 87.7085 81.3601 87.8647 81.3129 88.0547L79.544 95.1971C79.4766 95.4694 79.6021 95.7526 79.8486 95.886C82.5547 97.3485 86.4349 98.1876 90.4938 98.1876C99.4414 98.1876 105 93.985 105 87.2117C104.929 82.1207 102.113 78.8925 95.8734 76.7455Z" fill="white"/>
<defs>
<linearGradient id="paint0_linear" x1="75" y1="0" x2="75" y2="150" gradientUnits="userSpaceOnUse">
<stop offset="0.0833333" stop-color="#A881FD"/>
<stop offset="1" stop-color="#FF698D"/>
</linearGradient>
</defs>
</svg>
