<svg width="158" height="149" viewBox="0 0 158 149" fill="none" xmlns="http://www.w3.org/2000/svg">
<ellipse cx="71.577" cy="43.4825" rx="39.7651" ry="43.4825" fill="url(#paint0_linear)"/>
<g clip-path="url(#clip0)">
<path d="M71.2976 64.4642C70.6581 64.4642 70.0171 64.4296 69.3771 64.3601C64.9241 63.8759 60.7261 61.7006 57.5563 58.2345C49.9715 49.9401 49.9715 36.4449 57.5563 28.1506C65.1416 19.8567 77.483 19.8567 85.0683 28.1506C88.2411 31.6205 90.2312 36.2158 90.6713 41.0901C91.1055 45.8973 90.0246 50.7616 87.6271 54.7868C87.3371 55.2743 86.7405 55.4121 86.2947 55.0945C85.8489 54.777 85.7228 54.125 86.0133 53.6375C90.5013 46.1017 89.5311 36.0093 83.7064 29.6402C76.8721 22.1673 65.7525 22.1673 58.9185 29.6402C52.0846 37.113 52.0846 49.2725 58.9185 56.7453C64.7349 63.1059 73.9562 64.1725 80.8443 59.2822C81.2901 58.9655 81.8868 59.1041 82.1764 59.592C82.4661 60.0794 82.339 60.7319 81.8932 61.0486C78.7493 63.2807 75.0472 64.4642 71.2976 64.4642V64.4642Z" fill="white"/>
<path d="M84.3587 58.5739C84.1115 58.5739 83.8644 58.4706 83.6763 58.2637C83.3008 57.8515 83.3023 57.1847 83.6793 56.7746L83.7079 56.7433C84.0848 56.3332 84.6946 56.3348 85.0697 56.747C85.4451 57.1596 85.4436 57.8264 85.0663 58.2365L85.0381 58.2674C84.85 58.4718 84.6043 58.5739 84.3587 58.5739V58.5739Z" fill="white"/>
<path d="M66.861 40.3602C66.3295 40.3602 65.898 39.8888 65.898 39.3071C65.898 38.9431 65.6275 38.6473 65.2949 38.6473C64.9624 38.6473 64.6915 38.9431 64.6915 39.3071C64.6915 39.8888 64.2604 40.3602 63.7284 40.3602C63.1965 40.3602 62.7654 39.8888 62.7654 39.3071C62.7654 37.7818 63.9 36.5411 65.2949 36.5411C66.6895 36.5411 67.8241 37.7818 67.8241 39.3071C67.8241 39.8888 67.393 40.3602 66.861 40.3602Z" fill="white"/>
<path d="M79.4178 40.3602C78.8858 40.3602 78.4547 39.8888 78.4547 39.3071C78.4547 38.9431 78.1842 38.6473 77.8517 38.6473C77.5188 38.6473 77.2483 38.9431 77.2483 39.3071C77.2483 39.8888 76.8171 40.3602 76.2852 40.3602C75.7533 40.3602 75.3221 39.8888 75.3221 39.3071C75.3221 37.7818 76.4567 36.5411 77.8517 36.5411C79.2462 36.5411 80.3808 37.7818 80.3808 39.3071C80.3808 39.8888 79.9497 40.3602 79.4178 40.3602Z" fill="white"/>
<path d="M71.5733 53.8666C68.5415 53.8666 66.0756 51.1702 66.0756 47.855C66.0756 47.2737 66.5067 46.8019 67.0386 46.8019C67.5706 46.8019 68.0017 47.2737 68.0017 47.855C68.0017 50.0089 69.6039 51.7605 71.5733 51.7605C73.5427 51.7605 75.1449 50.0085 75.1449 47.855C75.1449 47.2737 75.576 46.8019 76.1079 46.8019C76.6399 46.8019 77.071 47.2737 77.071 47.855C77.071 51.1702 74.6047 53.8666 71.5733 53.8666Z" fill="white"/>
<path d="M91.1512 19.7942C90.6192 19.7942 90.1881 19.3227 90.1881 18.7411V17.2865C90.1881 16.7048 90.6192 16.2334 91.1512 16.2334C91.6831 16.2334 92.1142 16.7048 92.1142 17.2865V18.7411C92.1142 19.3227 91.6831 19.7942 91.1512 19.7942Z" fill="white"/>
<path d="M91.1512 26.7644C90.6192 26.7644 90.1881 26.293 90.1881 25.7113V24.2567C90.1881 23.675 90.6192 23.2036 91.1512 23.2036C91.6831 23.2036 92.1142 23.675 92.1142 24.2567V25.7113C92.1142 26.293 91.6831 26.7644 91.1512 26.7644Z" fill="white"/>
<path d="M95.0035 22.5519H93.6733C93.1413 22.5519 92.7102 22.0804 92.7102 21.4988C92.7102 20.9171 93.1413 20.4457 93.6733 20.4457H95.0035C95.5354 20.4457 95.9666 20.9171 95.9666 21.4988C95.9666 22.0804 95.5354 22.5519 95.0035 22.5519Z" fill="white"/>
<path d="M88.6292 22.5519H87.299C86.7671 22.5519 86.3359 22.0804 86.3359 21.4988C86.3359 20.9171 86.7671 20.4457 87.299 20.4457H88.6292C89.1612 20.4457 89.5923 20.9171 89.5923 21.4988C89.5923 22.0804 89.1612 22.5519 88.6292 22.5519Z" fill="white"/>
<path d="M51.4732 63.1815C50.9413 63.1815 50.5101 62.7101 50.5101 62.1284V60.6738C50.5101 60.0921 50.9413 59.6207 51.4732 59.6207C52.0051 59.6207 52.4363 60.0921 52.4363 60.6738V62.1284C52.4363 62.7101 52.0051 63.1815 51.4732 63.1815Z" fill="white"/>
<path d="M51.4732 70.1517C50.9413 70.1517 50.5101 69.6803 50.5101 69.0986V67.644C50.5101 67.0624 50.9413 66.5909 51.4732 66.5909C52.0051 66.5909 52.4363 67.0624 52.4363 67.644V69.0986C52.4363 69.6803 52.0051 70.1517 51.4732 70.1517Z" fill="white"/>
<path d="M55.3254 65.9393H53.9952C53.4632 65.9393 53.0321 65.4679 53.0321 64.8862C53.0321 64.3046 53.4632 63.8331 53.9952 63.8331H55.3254C55.8573 63.8331 56.2885 64.3046 56.2885 64.8862C56.2885 65.4679 55.8573 65.9393 55.3254 65.9393Z" fill="white"/>
<path d="M48.9511 65.9393H47.6209C47.089 65.9393 46.6578 65.4679 46.6578 64.8862C46.6578 64.3046 47.089 63.8331 47.6209 63.8331H48.9511C49.4831 63.8331 49.9142 64.3046 49.9142 64.8862C49.9142 65.4679 49.4831 65.9393 48.9511 65.9393Z" fill="white"/>
</g>
<ellipse cx="31.8121" cy="78.2684" rx="31.8121" ry="34.786" fill="url(#paint1_linear)"/>
<g clip-path="url(#clip1)">
<path d="M31.812 101.295C31.2384 101.295 30.6853 101.064 30.2543 100.646C28.6265 99.0693 27.057 97.5874 25.6724 96.2802L25.6653 96.2734C21.6057 92.4407 18.1001 89.1308 15.661 85.8703C12.9344 82.2253 11.6644 78.7693 11.6644 74.9939C11.6644 71.3257 12.7998 67.9416 14.8611 65.4645C16.947 62.9581 19.8091 61.5776 22.9212 61.5776C25.2472 61.5776 27.3774 62.3923 29.2524 63.9989C30.1987 64.8099 31.0564 65.8023 31.812 66.96C32.568 65.8023 33.4254 64.8099 34.372 63.9989C36.247 62.3923 38.3772 61.5776 40.7032 61.5776C43.815 61.5776 46.6774 62.9581 48.7633 65.4645C50.8246 67.9416 51.9596 71.3257 51.9596 74.9939C51.9596 78.7693 50.69 82.2253 47.9634 85.87C45.5243 89.1308 42.019 92.4403 37.96 96.2727C36.5729 97.5819 35.001 99.0662 33.3695 100.647C32.9388 101.064 32.3854 101.295 31.812 101.295V101.295ZM22.9212 64.1927C20.4762 64.1927 18.2302 65.2737 16.5962 67.2369C14.9379 69.2297 14.0246 71.9844 14.0246 74.9939C14.0246 78.1692 15.0898 81.0091 17.4782 84.2018C19.7867 87.2879 23.2203 90.5296 27.196 94.2833L27.2034 94.2901C28.5933 95.6024 30.1688 97.0901 31.8087 98.6786C33.4583 97.087 35.0363 95.5969 36.429 94.2826C40.4043 90.5289 43.8377 87.2879 46.1462 84.2018C48.5343 81.0091 49.5995 78.1692 49.5995 74.9939C49.5995 71.9844 48.6862 69.2297 47.0279 67.2369C45.3942 65.2737 43.1478 64.1927 40.7032 64.1927C38.9121 64.1927 37.2677 64.8235 35.8157 66.0673C34.5217 67.1763 33.6203 68.5782 33.0919 69.5591C32.8201 70.0635 32.3417 70.3646 31.812 70.3646C31.2823 70.3646 30.804 70.0635 30.5322 69.5591C30.0041 68.5782 29.1027 67.1763 27.8084 66.0673C26.3564 64.8235 24.712 64.1927 22.9212 64.1927V64.1927Z" fill="white"/>
</g>
<ellipse cx="120.886" cy="78.2685" rx="37.1141" ry="40.5837" fill="url(#paint2_linear)"/>
<g clip-path="url(#clip2)">
<path d="M120.319 71.991C120.64 72.3031 121.174 72.24 121.419 71.8632L126.226 64.4415C126.446 64.1013 126.355 63.6426 126.023 63.4171C125.691 63.192 125.242 63.2851 125.022 63.6249L120.69 70.3132L118.282 67.975C117.993 67.6941 117.536 67.7064 117.261 68.0023C116.986 68.2982 116.998 68.7658 117.288 69.0467C117.287 69.0467 120.316 71.9887 120.319 71.991V71.991Z" fill="white"/>
<path d="M120.812 83.2605C120.95 83.3252 121.103 83.3594 121.255 83.3594H121.261C121.415 83.3587 121.57 83.3225 121.709 83.2548C132.692 77.9115 134.553 66.3829 134.862 62.9768C134.933 62.1991 134.505 61.4749 133.797 61.1747C131.61 60.2461 130.124 58.1696 129.918 55.7556C129.854 55.0125 129.234 54.4333 128.502 54.4333H128.494L113.696 54.5222C112.95 54.5265 112.344 55.1064 112.287 55.8711C112.105 58.2858 110.641 60.3773 108.465 61.3294C107.765 61.6357 107.347 62.3638 107.427 63.1412C107.774 66.5434 109.768 78.0493 120.812 83.2605V83.2605ZM109.033 62.6878C111.701 61.521 113.498 58.9593 113.726 55.9996L128.481 55.9111C128.743 58.8642 130.566 61.4025 133.243 62.5393C133.363 62.5905 133.435 62.7113 133.424 62.8406C133.134 66.0327 131.401 76.7959 121.252 81.8398C111.045 76.9186 109.19 66.1763 108.863 62.9876C108.85 62.8587 108.918 62.7382 109.033 62.6878Z" fill="white"/>
<path d="M110.836 66.784C110.924 67.1126 111.331 67.4135 111.723 67.3031C112.108 67.1946 112.335 66.7901 112.231 66.3964C112.047 65.703 111.892 64.9999 111.771 64.3034C113.733 62.9954 115.189 61.0431 115.903 58.7631L126.335 58.7003C127.075 60.9712 128.553 62.9065 130.531 64.1906C130.417 64.8891 130.271 65.5945 130.094 66.2906C129.994 66.6858 130.226 67.0891 130.612 67.1915C130.999 67.2938 131.393 67.0564 131.493 66.6612C131.7 65.8438 131.868 65.0141 131.993 64.1952C132.063 63.7377 131.859 63.2878 131.473 63.0492C129.631 61.9113 128.269 60.1261 127.639 58.0227C127.497 57.5497 127.061 57.2211 126.578 57.2211H126.571L115.65 57.2865C115.163 57.2896 114.727 57.6248 114.591 58.1012C113.985 60.2119 112.644 62.0133 110.815 63.1735C110.432 63.4164 110.233 63.8685 110.308 64.3257C110.443 65.1427 110.62 65.9697 110.836 66.784V66.784Z" fill="white"/>
<path d="M130.033 68.9748C129.664 68.8185 129.242 68.9986 129.09 69.3758C127.421 73.5142 124.778 76.6605 121.234 78.7312C117.662 76.7005 114.981 73.5807 113.265 69.4554C113.108 69.0802 112.684 68.9055 112.317 69.0652C111.95 69.2249 111.779 69.659 111.935 70.0342C113.808 74.5359 116.759 77.9296 120.706 80.1204C120.872 80.2132 121.054 80.259 121.236 80.259C121.422 80.259 121.608 80.2109 121.777 80.1143C125.694 77.8788 128.604 74.4554 130.425 69.9391C130.578 69.562 130.402 69.1302 130.033 68.9748Z" fill="white"/>
<path d="M101.131 92.2408C99.7222 92.2408 98.5756 93.4134 98.5756 94.855C98.5756 96.2965 99.7222 97.4691 101.131 97.4691C102.54 97.4691 103.687 96.2965 103.687 94.855C103.687 93.4134 102.541 92.2408 101.131 92.2408V92.2408ZM101.131 95.9913C100.519 95.9913 100.02 95.4818 100.02 94.855C100.02 94.2285 100.519 93.7186 101.131 93.7186C101.744 93.7186 102.242 94.2285 102.242 94.855C102.242 95.4818 101.744 95.9913 101.131 95.9913Z" fill="white"/>
<path d="M145.287 85.0073C144.362 83.6158 142.498 83.2471 141.132 84.1853L131.69 90.65L129.674 90.5342L129.623 90.0062C129.422 87.9385 127.877 86.2911 125.866 86.0002C125.853 85.9982 125.84 85.9967 125.828 85.9955L115.653 85.0835C115.309 85.0285 114.207 84.7048 111.179 82.9285C109.606 82.0053 107.833 81.4842 106.031 81.4134V79.4805C106.031 78.5103 105.26 77.7214 104.312 77.7214H98.2163C97.2683 77.7214 96.4967 78.5107 96.4967 79.4805V98.5181C96.4967 99.4879 97.2683 100.277 98.2163 100.277H104.312C105.26 100.277 106.031 99.4879 106.031 98.5181V97.9936L114.925 101.439C114.945 101.447 115.667 101.723 116.995 101.595C116.999 101.594 131.773 99.4155 131.773 99.4155C131.777 99.4151 131.78 99.4144 131.784 99.4136C133.047 99.2077 134.237 98.6617 135.228 97.8354C135.237 97.8277 135.246 97.8201 135.254 97.8124L144.799 89.031C145.924 88.0093 146.134 86.2795 145.287 85.0073V85.0073ZM143.836 87.9293L134.302 96.7014C133.512 97.356 132.565 97.7889 131.562 97.9536L116.794 100.131C116.791 100.132 116.786 100.132 116.782 100.133C116.779 100.134 116.777 100.134 116.774 100.134C116.333 100.206 115.873 100.176 115.407 100.045L106.031 96.4135V87.9755C106.031 87.5672 105.708 87.2366 105.309 87.2366C104.91 87.2366 104.587 87.5672 104.587 87.9755V98.5181C104.587 98.6732 104.463 98.7994 104.312 98.7994H98.2163C98.0647 98.7994 97.9413 98.6732 97.9413 98.5181V79.4805C97.9413 79.3254 98.0647 79.1992 98.2163 79.1992H104.312C104.463 79.1992 104.587 79.3254 104.587 79.4805V84.6379C104.587 85.0462 104.91 85.3767 105.309 85.3767C105.708 85.3767 106.031 85.0458 106.031 84.6379V82.8927C107.581 82.9627 109.105 83.4153 110.46 84.2107C114.112 86.353 115.132 86.5008 115.467 86.5493C115.48 86.5512 115.492 86.5524 115.505 86.5539L125.681 87.466C127.022 87.6688 128.051 88.7709 128.185 90.1524L128.224 90.5461L114.6 91.4066C114.591 91.4058 114.582 91.405 114.573 91.4043C114.132 91.3635 113.733 91.1499 113.45 90.8028C113.194 90.4891 112.739 90.4468 112.432 90.7085C112.126 90.9698 112.084 91.4358 112.34 91.7491C112.87 92.3994 113.618 92.7885 114.445 92.8762C114.891 92.9239 129.018 91.9765 129.018 91.9765L131.85 92.1393C132.007 92.1485 132.162 92.1046 132.292 92.0154L141.937 85.4125C142.645 84.9257 143.613 85.1166 144.093 85.8385C144.532 86.4989 144.423 87.3963 143.836 87.9293V87.9293Z" fill="white"/>
</g>
<ellipse cx="46.6578" cy="120.012" rx="26.5101" ry="28.9883" fill="url(#paint3_linear)"/>
<g clip-path="url(#clip3)">
<path d="M41.731 110.541H39.829C39.671 110.541 39.554 110.596 39.554 110.753V114.51C39.554 114.666 39.7004 114.747 39.8802 114.747C40.0546 114.747 40.2064 114.666 40.2064 114.51V112.928H41.0607C41.2129 112.928 41.2787 112.759 41.2787 112.625C41.2787 112.469 41.2023 112.312 41.0607 112.312H40.2064V111.157H41.731C41.8727 111.157 41.949 111.022 41.949 110.843C41.949 110.687 41.8837 110.541 41.731 110.541V110.541Z" fill="white"/>
<path d="M42.6348 110.515C42.455 110.515 42.3086 110.585 42.3086 110.747V114.51C42.3086 114.666 42.455 114.747 42.6348 114.747C42.8092 114.747 42.961 114.666 42.961 114.51V110.747C42.961 110.585 42.8092 110.515 42.6348 110.515Z" fill="white"/>
<path d="M45.933 110.515C45.7533 110.515 45.5706 110.585 45.5706 110.747V113.074L44.5256 110.915C44.3567 110.573 44.2385 110.515 43.9824 110.515C43.8024 110.515 43.6134 110.59 43.6134 110.753V114.51C43.6134 114.666 43.796 114.747 43.9758 114.747C44.1502 114.747 44.3383 114.666 44.3383 114.51V112.182L45.5199 114.51C45.5602 114.587 45.6209 114.651 45.6945 114.693C45.7681 114.735 45.8516 114.754 45.9349 114.747C46.1094 114.747 46.2955 114.666 46.2955 114.51V110.747C46.2955 110.585 46.1074 110.515 45.933 110.515Z" fill="white"/>
<path d="M47.3103 110.515C47.1305 110.515 46.9479 110.585 46.9479 110.747V114.51C46.9479 114.666 47.1305 114.747 47.3103 114.747C47.4847 114.747 47.6728 114.666 47.6728 114.51V110.747C47.6728 110.585 47.4847 110.515 47.3103 110.515Z" fill="white"/>
<path d="M48.9195 111.575C48.9195 111.297 49.1429 111.129 49.5357 111.129C49.9935 111.129 50.1187 111.349 50.2877 111.349C50.4839 111.349 50.5711 111.083 50.5711 110.949C50.5711 110.567 49.8572 110.486 49.5357 110.486C48.909 110.486 48.2114 110.782 48.2114 111.644C48.2114 113.016 49.9608 112.75 49.9608 113.618C49.9608 113.965 49.6773 114.122 49.3504 114.122C48.7945 114.122 48.6473 113.676 48.4239 113.676C48.255 113.676 48.1133 113.919 48.1133 114.081C48.1133 114.417 48.6582 114.799 49.3722 114.799C50.1243 114.799 50.6692 114.371 50.6692 113.543C50.6689 112.044 48.9195 112.292 48.9195 111.575V111.575Z" fill="white"/>
<path d="M53.4356 110.515C53.2558 110.515 53.1094 110.585 53.1094 110.747V112.235H51.8771V110.747C51.8771 110.585 51.6891 110.515 51.5147 110.515C51.3349 110.515 51.1522 110.585 51.1522 110.747V114.51C51.1522 114.666 51.3349 114.747 51.5147 114.747C51.6891 114.747 51.8771 114.666 51.8771 114.51V112.851H53.1094V114.51C53.1094 114.666 53.2558 114.747 53.4356 114.747C53.6096 114.747 53.7618 114.666 53.7618 114.51V110.747C53.7618 110.585 53.6099 110.515 53.4356 110.515Z" fill="white"/>
<path d="M62.9678 134.197V104.366C62.9678 104.009 62.8341 103.666 62.5962 103.413C62.3583 103.161 62.0357 103.019 61.6992 103.019C61.3628 103.019 61.0401 103.161 60.8022 103.413C60.5643 103.666 60.4307 104.009 60.4307 104.366V105.376C55.8929 106.309 51.2816 106.78 46.6595 106.782C42.0363 106.78 37.4239 106.309 32.8851 105.375V104.366C32.8851 104.009 32.7514 103.666 32.5135 103.413C32.2756 103.161 31.9529 103.019 31.6165 103.019C31.2801 103.019 30.9574 103.161 30.7195 103.413C30.4816 103.666 30.348 104.009 30.348 104.366V134.197C29.8778 134.234 29.4379 134.457 29.1157 134.823C28.7934 135.188 28.6123 135.669 28.6082 136.17V136.544C28.606 136.668 28.6495 136.789 28.7295 136.879C28.8095 136.97 28.9196 137.023 29.0364 137.029H34.2062C34.4463 137.029 34.6248 136.8 34.6248 136.544V136.17C34.6248 135.12 33.8999 134.258 32.8851 134.197V117.17C37.4251 118.089 42.0366 118.55 46.6584 118.549H46.6939C51.303 118.552 55.9022 118.094 60.4307 117.182V134.197C59.4158 134.259 58.6909 135.12 58.6909 136.17V136.544C58.6909 136.8 58.8694 137.029 59.1096 137.029H64.2794C64.3961 137.023 64.5063 136.97 64.5863 136.879C64.6662 136.789 64.7098 136.668 64.7075 136.544V136.17C64.7035 135.669 64.5223 135.188 64.2001 134.823C63.8778 134.457 63.4379 134.234 62.9678 134.197V134.197ZM61.3005 117.004C61.3836 116.974 61.4559 116.916 61.5077 116.841C61.5595 116.765 61.5884 116.674 61.5905 116.581V105.701C61.5879 105.632 61.571 105.564 61.5411 105.502C61.5112 105.44 61.4689 105.386 61.4172 105.343C61.3821 105.313 61.3427 105.289 61.3005 105.272V104.366C61.3005 104.254 61.3425 104.146 61.4173 104.067C61.4921 103.987 61.5935 103.943 61.6992 103.943C61.805 103.943 61.9064 103.987 61.9811 104.067C62.0559 104.146 62.0979 104.254 62.0979 104.366V134.18H61.3005V117.004ZM33.7678 136.105H29.4747C29.5167 135.566 29.9436 135.104 30.4623 135.104H32.7801C33.2988 135.104 33.7259 135.566 33.7678 136.105ZM46.6941 117.625H46.659C41.9383 117.631 37.2281 117.15 32.5951 116.187V111.157C32.5951 111.034 32.5493 110.917 32.4677 110.83C32.3861 110.743 32.2755 110.695 32.1602 110.695C32.0448 110.695 31.9342 110.743 31.8526 110.83C31.7711 110.917 31.7252 111.034 31.7252 111.157V116.504C31.7265 116.603 31.7545 116.7 31.8059 116.783C31.8573 116.866 31.9299 116.931 32.0152 116.972V134.18H31.2178V104.366C31.2178 104.254 31.2598 104.146 31.3346 104.067C31.4094 103.987 31.5108 103.943 31.6165 103.943C31.7222 103.943 31.8237 103.987 31.8984 104.067C31.9732 104.146 32.0152 104.254 32.0152 104.366V105.273C31.9731 105.29 31.9338 105.314 31.8987 105.343C31.847 105.386 31.8047 105.44 31.7748 105.502C31.7448 105.564 31.7279 105.631 31.7252 105.701V108.077C31.7252 108.199 31.7711 108.317 31.8526 108.403C31.9342 108.49 32.0448 108.539 32.1602 108.539C32.2755 108.539 32.3861 108.49 32.4677 108.403C32.5493 108.317 32.5951 108.199 32.5951 108.077V106.264C37.2286 107.221 41.9377 107.703 46.6579 107.706C51.3781 107.703 56.0872 107.221 60.7206 106.264V116.202C56.0992 117.155 51.4018 117.632 46.6941 117.625V117.625ZM59.5479 136.105C59.5899 135.566 60.0169 135.104 60.5356 135.104H62.8534C63.3721 135.104 63.799 135.566 63.841 136.105H59.5479Z" fill="white"/>
<path d="M33.8999 131.359C33.8999 131.481 33.9457 131.599 34.0273 131.686C34.1089 131.772 34.2195 131.821 34.3348 131.821C34.4502 131.821 34.5608 131.772 34.6424 131.686C34.7239 131.599 34.7698 131.481 34.7698 131.359V129.896C34.7698 129.774 34.7239 129.656 34.6424 129.57C34.5608 129.483 34.4502 129.434 34.3348 129.434C34.2195 129.434 34.1089 129.483 34.0273 129.57C33.9457 129.656 33.8999 129.774 33.8999 129.896V131.359Z" fill="white"/>
<path d="M33.8999 128.193C33.8999 128.315 33.9457 128.433 34.0273 128.52C34.1089 128.606 34.2195 128.655 34.3348 128.655C34.4502 128.655 34.5608 128.606 34.6424 128.52C34.7239 128.433 34.7698 128.315 34.7698 128.193V121.909C34.7698 121.786 34.7239 121.669 34.6424 121.582C34.5608 121.495 34.4502 121.447 34.3348 121.447C34.2195 121.447 34.1089 121.495 34.0273 121.582C33.9457 121.669 33.8999 121.786 33.8999 121.909V128.193Z" fill="white"/>
<path d="M34.3348 120.647C34.4502 120.647 34.5608 120.598 34.6424 120.512C34.7239 120.425 34.7698 120.307 34.7698 120.185V119.815C34.7698 119.692 34.7239 119.575 34.6424 119.488C34.5608 119.401 34.4502 119.353 34.3348 119.353C34.2195 119.353 34.1089 119.401 34.0273 119.488C33.9457 119.575 33.8999 119.692 33.8999 119.815V120.185C33.8999 120.307 33.9457 120.425 34.0273 120.512C34.1089 120.598 34.2195 120.647 34.3348 120.647Z" fill="white"/>
</g>
<ellipse cx="100.738" cy="117.113" rx="29.1611" ry="31.8872" fill="url(#paint4_linear)"/>
<g clip-path="url(#clip4)">
<path d="M99.7268 101.983L92.478 103.704C92.1392 103.785 91.8953 104.138 91.8953 104.548V118.318C91.8953 118.728 92.1392 119.081 92.478 119.162L99.7268 120.883C100.175 120.989 100.594 120.581 100.594 120.039V119.178H104.218C104.619 119.178 104.943 118.793 104.943 118.318V104.548C104.943 104.073 104.619 103.688 104.218 103.688H100.594V102.827C100.594 102.285 100.176 101.877 99.7268 101.983V101.983ZM99.1441 118.989L93.345 117.612V105.254L99.1441 103.877V118.989ZM103.493 105.409V117.457H100.594V105.409H103.493Z" fill="white"/>
<path d="M96.9694 108.851C96.569 108.851 96.2445 109.236 96.2445 109.712V113.154C96.2445 113.629 96.569 114.015 96.9694 114.015C97.3697 114.015 97.6943 113.629 97.6943 113.154V109.712C97.6943 109.236 97.3697 108.851 96.9694 108.851Z" fill="white"/>
<path d="M89.213 101.364C89.6134 101.364 89.9379 100.979 89.9379 100.503C89.9379 100.028 89.6134 99.6428 89.213 99.6428C88.8127 99.6428 88.4882 100.028 88.4882 100.503C88.4882 100.979 88.8127 101.364 89.213 101.364Z" fill="white"/>
<path d="M90.4527 138.162C90.423 138.409 90.4849 138.659 90.6227 138.847C90.7603 139.036 90.9602 139.144 91.1703 139.144H102.768C103.169 139.144 103.493 138.759 103.493 138.283C103.493 136.453 104.76 134.325 106.393 134.325H109.292C111.185 134.325 112.744 132.593 112.903 130.394L113.129 130.126C113.817 129.309 113.947 128.077 113.519 127.104C113.951 126.797 114.276 126.326 114.447 125.753C114.644 125.093 114.61 124.386 114.351 123.758L113.903 122.545L115.343 121.994C116.063 121.709 116.597 121.015 116.771 120.138C116.945 119.264 116.731 118.363 116.199 117.727C112.341 112.939 113.111 113.89 113.005 113.762C112.481 113.14 112.192 112.313 112.192 111.433C112.192 102.417 106.014 95.0817 98.4192 95.0817C95.9446 95.0817 93.5176 95.8701 91.4005 97.3615C91.0562 97.6041 90.9427 98.132 91.147 98.5407C91.3513 98.9495 91.796 99.0843 92.1403 98.8417C94.0335 97.5078 96.2047 96.8028 98.4192 96.8028C105.214 96.8028 110.742 103.366 110.742 111.433C110.742 112.769 111.179 114.026 111.974 114.973C111.974 114.973 115.164 118.932 115.168 118.937C115.425 119.242 115.388 119.602 115.36 119.742C115.332 119.883 115.23 120.224 114.891 120.358L112.694 121.199C112.499 121.274 112.34 121.443 112.256 121.665C112.172 121.887 112.171 122.141 112.253 122.364C112.842 123.957 113.033 124.475 113.046 124.506C113.135 124.717 113.147 124.956 113.081 125.179C113.014 125.401 112.878 125.577 112.698 125.674L112.073 126.011C111.857 126.128 111.702 126.363 111.66 126.641C111.618 126.919 111.693 127.203 111.861 127.403L112.104 127.692C112.387 128.028 112.387 128.573 112.104 128.909L111.679 129.413C111.543 129.575 111.467 129.794 111.467 130.022C111.467 131.445 110.492 132.604 109.292 132.604H106.393C104.209 132.604 102.44 134.909 102.102 137.423H91.9892C92.5099 131.339 90.8088 127.505 89.1611 123.791C87.6542 120.395 86.0961 116.883 86.0961 111.433C86.0961 108.804 86.69 106.226 87.8135 103.978C88.0177 103.57 87.9042 103.042 87.56 102.799C87.2157 102.557 86.7709 102.691 86.5667 103.1C85.3104 105.614 84.6464 108.495 84.6464 111.433C84.6464 117.309 86.2895 121.012 87.8784 124.593C89.5803 128.429 91.1879 132.053 90.4527 138.162V138.162Z" fill="white"/>
</g>
<ellipse cx="72.6375" cy="85.2257" rx="23.8591" ry="26.0895" fill="url(#paint5_linear)"/>
<g clip-path="url(#clip5)">
<path d="M72.9582 85.0616C71.4336 84.0447 69.4374 84.2801 68.131 85.7673C66.5792 87.5338 66.5792 90.4084 68.131 92.175L72.1561 96.7573C72.3776 97.0094 72.6679 97.1355 72.9579 97.1355C73.2481 97.1355 73.5384 97.0094 73.7596 96.7573L77.7847 92.175C79.3365 90.4084 79.3365 87.5338 77.7847 85.7673C76.4787 84.2804 74.4828 84.0447 72.9582 85.0616V85.0616ZM76.1813 90.3496L72.9582 94.0189L69.7347 90.3496C69.0671 89.5895 69.0671 88.3527 69.7347 87.593C70.4024 86.8329 71.4885 86.8329 72.1561 87.593C72.5991 88.0969 73.3169 88.0969 73.7599 87.593C74.4272 86.8329 75.5136 86.8329 76.1813 87.593C76.849 88.3527 76.849 89.5895 76.1813 90.3496Z" fill="white"/>
<path d="M77.7038 78.8714C79.9211 77.1429 81.3793 74.24 81.3793 70.956C81.3793 65.6698 77.6016 61.3691 72.9581 61.3691C68.3143 61.3691 64.5366 65.6698 64.5366 70.956C64.5366 74.24 65.9948 77.1432 68.2124 78.8718C59.4912 82.3199 58.4639 91.5642 58.4639 94.4616V99.3193C58.4639 102.689 60.8723 105.431 63.8329 105.431H82.083C85.0436 105.431 87.452 102.689 87.452 99.3193V94.4603C87.452 91.5013 86.2829 82.2634 77.7038 78.8714V78.8714ZM66.8044 70.956C66.8044 67.0934 69.5649 63.9509 72.9581 63.9509C76.351 63.9509 79.1114 67.0934 79.1114 70.956C79.1114 74.8189 76.351 77.9614 72.9581 77.9614C69.5649 77.9614 66.8044 74.8189 66.8044 70.956ZM85.1841 99.3193C85.1841 101.266 83.793 102.85 82.083 102.85H77.7847C77.086 102.85 76.5211 102.207 76.5211 101.41C76.5211 100.574 77.1152 99.9008 77.8467 99.9008H81.4599C82.0862 99.9008 82.5938 99.3226 82.5938 98.6099V93.079C82.5938 92.3663 82.0862 91.7881 81.4599 91.7881C80.8336 91.7881 80.326 92.3663 80.326 93.079V97.3191H77.8467C75.862 97.3191 74.2532 99.1468 74.2532 101.411C74.2532 101.911 74.3339 102.396 74.4862 102.85H71.4181C71.5755 102.393 71.6626 101.895 71.6626 101.375C71.6626 99.1085 70.0456 97.3191 68.0996 97.3191H65.5899V93.0793C65.5899 92.3663 65.0823 91.7884 64.456 91.7884C63.8297 91.7884 63.322 92.3663 63.322 93.0793V98.6099C63.322 99.323 63.8297 99.9008 64.456 99.9008H68.0996C68.8104 99.9008 69.3948 100.555 69.3948 101.377C69.3948 102.189 68.8142 102.85 68.1008 102.85H63.8329C62.1229 102.85 60.7317 101.266 60.7317 99.3193V94.462C60.7317 86.7607 66.2065 80.5432 72.9593 80.5432C79.7221 80.5432 85.1841 86.7744 85.1841 94.4606V99.3193Z" fill="white"/>
</g>
<defs>
<linearGradient id="paint0_linear" x1="71.577" y1="0" x2="71.577" y2="86.965" gradientUnits="userSpaceOnUse">
<stop offset="0.0833333" stop-color="#F2DF9B"/>
<stop offset="1" stop-color="#FF698D"/>
</linearGradient>
<linearGradient id="paint1_linear" x1="31.8121" y1="43.4824" x2="31.8121" y2="113.054" gradientUnits="userSpaceOnUse">
<stop offset="0.0833333" stop-color="#FF698D"/>
<stop offset="1" stop-color="#FF819F"/>
</linearGradient>
<linearGradient id="paint2_linear" x1="120.886" y1="37.6848" x2="120.886" y2="118.852" gradientUnits="userSpaceOnUse">
<stop offset="0.0833333" stop-color="#712FFF"/>
<stop offset="1" stop-color="#FEA6F5"/>
</linearGradient>
<linearGradient id="paint3_linear" x1="46.6578" y1="91.0234" x2="46.6578" y2="149" gradientUnits="userSpaceOnUse">
<stop offset="0.0833333" stop-color="#A881FD"/>
<stop offset="1" stop-color="#FF698D"/>
</linearGradient>
<linearGradient id="paint4_linear" x1="100.738" y1="85.2257" x2="100.738" y2="149" gradientUnits="userSpaceOnUse">
<stop offset="0.0833333" stop-color="#FF3062"/>
<stop offset="1" stop-color="#268ED7"/>
</linearGradient>
<linearGradient id="paint5_linear" x1="72.6375" y1="59.1362" x2="72.6375" y2="111.315" gradientUnits="userSpaceOnUse">
<stop offset="0.0833333" stop-color="#36C3E1"/>
<stop offset="1" stop-color="#EB4D86"/>
</linearGradient>
<clipPath id="clip0">
<rect width="49.3087" height="53.9183" fill="white" transform="translate(46.6578 16.2334)"/>
</clipPath>
<clipPath id="clip1">
<rect width="40.2953" height="44.642" fill="white" transform="translate(11.6644 59.1362)"/>
</clipPath>
<clipPath id="clip2">
<rect width="49.3087" height="50.4397" fill="white" transform="translate(96.4967 52.7587)"/>
</clipPath>
<clipPath id="clip3">
<rect width="37.1141" height="39.4241" fill="white" transform="translate(28.1008 100.3)"/>
</clipPath>
<clipPath id="clip4">
<rect width="37.1141" height="44.0623" fill="white" transform="translate(82.1813 95.0817)"/>
</clipPath>
<clipPath id="clip5">
<rect width="38.7047" height="44.0623" fill="white" transform="translate(53.5503 61.4552)"/>
</clipPath>
</defs>
</svg>
