<svg width="42" height="39" viewBox="0 0 42 39" fill="none" xmlns="http://www.w3.org/2000/svg">
<path d="M21 16.7423L38.4151 0.571142C39.2352 -0.190381 40.5648 -0.190381 41.3849 0.571142C42.205 1.33266 42.205 2.56733 41.3849 3.32886L23.9698 19.5L41.3849 35.6711C42.205 36.4327 42.205 37.6673 41.3849 38.4289C40.5648 39.1904 39.2352 39.1904 38.4151 38.4289L21 22.2577L3.58492 38.4289C2.76482 39.1904 1.43518 39.1904 0.615076 38.4289C-0.205025 37.6673 -0.205025 36.4327 0.615076 35.6711L18.0302 19.5L0.615076 3.32886C-0.205025 2.56733 -0.205025 1.33266 0.615076 0.571142C1.43518 -0.190381 2.76482 -0.190381 3.58492 0.571142L21 16.7423Z" fill="white"/>
</svg>
