<svg width="32" height="32" viewBox="0 0 32 32" fill="none" xmlns="http://www.w3.org/2000/svg">
<path fill-rule="evenodd" clip-rule="evenodd" d="M30.0967 20.3091H16.4164C15.3652 20.3091 14.513 20.9533 14.513 21.748V30.0215C14.513 30.8162 15.3652 31.4604 16.4164 31.4604H30.0967C31.1478 31.4604 32 30.8162 32 30.0215V21.748C32 20.9533 31.1478 20.3091 30.0967 20.3091ZM28.1933 22.8271C28.4561 22.8271 28.6691 22.9882 28.6691 23.1868V28.5827C28.6691 28.7813 28.4561 28.9424 28.1933 28.9424H18.3197C18.0569 28.9424 17.8439 28.7813 17.8439 28.5827V23.1868C17.8439 22.9882 18.0569 22.8271 18.3197 22.8271H28.1933Z" fill="#C5CFD6"/>
<path fill-rule="evenodd" clip-rule="evenodd" d="M6.0063 31.16C7.5305 28.6098 8.63278 26.3891 9.07523 25.2175C9.83282 23.2114 10.4091 21.4461 10.5548 20.7869C10.9022 19.2148 7.88276 19.1233 7.48366 19.9046C6.8796 21.087 5.82505 24.9722 4.55793 30.8406L6.0063 31.16ZM23.6861 23.1566C22.2877 22.7387 17.3904 21.431 15.0284 21.061C14.3497 20.9547 13.6918 20.8559 13.0733 20.7667C11.2349 20.5014 10.2825 23.0086 12.0531 23.2012C16.4625 23.6809 22.7137 24.1764 23.2486 24.232C23.9984 24.3099 24.565 23.4192 23.6861 23.1566Z" fill="#FBC4C0"/>
<path fill-rule="evenodd" clip-rule="evenodd" d="M11.945 20.0768L19.5093 17.1658V16.532H18.6097C11.2916 17.9418 7.55206 18.8452 7.39107 19.2423C7.38934 19.2466 7.38776 19.2509 7.38631 19.2552C7.38263 19.2588 7.37901 19.2625 7.37545 19.2662C5.92516 20.774 5.05659 28.1355 4.77151 28.6866L7.55059 29.0001C8.61366 26.02 12.0149 23.9439 11.9245 20.3747C11.9489 20.27 11.9551 20.1707 11.945 20.0768Z" fill="#0F1546"/>
<path fill-rule="evenodd" clip-rule="evenodd" d="M18.8808 21.8056C19.5729 21.7008 20.2103 21.6074 20.7556 21.5351C24.2784 21.0679 25.3057 19.6424 24.6983 16.532H18.2076C17.1474 16.7623 11.6373 18.5091 8.77837 19.4383C6.88621 20.0532 7.48268 22.27 8.55421 22.8469C8.56003 22.8823 8.57931 22.9063 8.61365 22.9171C14.3777 24.7231 18.9377 23.7755 20.4609 24.0783L21.1655 22.398L18.8808 21.8056Z" fill="#141C5C"/>
<path fill-rule="evenodd" clip-rule="evenodd" d="M23.208 22.8895C23.5856 22.9168 23.8537 22.9597 24.0122 23.0182C24.2051 23.0893 24.4707 23.2173 24.8093 23.4022C24.7002 23.5713 23.7198 25.0909 21.868 27.9611C21.2735 27.8886 21.038 27.717 21.1613 27.4466C21.2847 27.1761 21.3842 26.9503 21.4598 26.7692L21.5774 24.1895C21.5796 24.1399 21.6347 24.1011 21.7003 24.1028C21.7015 24.1028 21.7026 24.1028 21.7037 24.1029L22.2286 24.1278C22.5269 23.9453 22.7237 23.7802 22.819 23.6325C22.8964 23.5124 22.9393 23.323 22.9475 23.0643L22.9475 23.0643C22.9506 22.965 23.0597 22.8864 23.191 22.8888C23.1967 22.8889 23.2023 22.8891 23.208 22.8895Z" fill="white"/>
<path fill-rule="evenodd" clip-rule="evenodd" d="M6.70003 30.6872C6.83312 30.9557 6.89966 31.1567 6.89966 31.29C6.89966 31.4522 6.86392 31.6889 6.79245 32C6.54359 32 4.30709 32 0.0829382 32C-0.0914183 31.5642 0.00923014 31.329 0.384884 31.2942C0.760537 31.2595 1.0726 31.2281 1.32107 31.2001L4.43958 30.1491C4.49959 30.1289 4.56992 30.1493 4.59667 30.1946C4.59713 30.1954 4.59757 30.1962 4.598 30.197L4.79846 30.5646C5.14622 30.6872 5.4288 30.7486 5.64622 30.7486C5.82287 30.7486 6.06683 30.6946 6.37808 30.5868L6.37808 30.5868C6.49753 30.5454 6.63875 30.585 6.69351 30.6753C6.69587 30.6792 6.69804 30.6832 6.70003 30.6872Z" fill="white"/>
<path fill-rule="evenodd" clip-rule="evenodd" d="M16.7085 1.8863C16.3109 3.14749 15.8111 5.97811 16.3725 6.41526L19.8808 6.37761C19.8811 6.37251 19.8813 6.36743 19.8816 6.36236C21.1801 6.23072 22.1775 5.31824 22.1606 4.22342L22.1286 2.14575C22.1104 0.970968 20.9312 0.0311139 19.4947 0.0465312L19.2528 0.049128C17.9482 0.0631289 16.8801 0.860135 16.7085 1.8863Z" fill="#BF7E68"/>
<path fill-rule="evenodd" clip-rule="evenodd" d="M20.792 3.84134C21.3412 3.30023 21.7084 2.64038 21.634 1.90621C21.4197 -0.209128 17.8229 0.295329 17.1384 1.37148C16.4539 2.44763 16.579 5.1574 17.488 5.33867C17.8505 5.41096 18.6173 5.21611 19.3948 4.82154L18.947 7.67181L21.8504 7.64065L20.792 3.84134Z" fill="#FBC4C0"/>
<path fill-rule="evenodd" clip-rule="evenodd" d="M20.0017 3.49211C19.886 4.66872 19.9603 6.01016 20.3639 6.32445L23.8723 6.28679C24.0248 3.50718 22.1523 4.60304 22.1119 1.98794C21.9927 1.89509 21.88 1.80313 21.7686 1.72398L21.7713 1.64703C21.1481 0.636432 20.3695 0.136147 19.4356 0.14617C18.0347 0.161206 17.6007 0.699054 17.2312 1.15571C17.5249 1.9427 18.6193 2.04812 19.5977 2.53014C19.711 2.45288 19.8562 2.40574 20.0151 2.40404C20.3826 2.40009 20.6842 2.64052 20.6889 2.94105C20.6935 3.24158 20.3994 3.4884 20.0319 3.49234C20.0218 3.49245 20.0117 3.49237 20.0017 3.49211Z" fill="#BF7E68"/>
<path fill-rule="evenodd" clip-rule="evenodd" d="M12.6044 15.1042L9.23454 17.5894C8.25403 17.9056 7.45065 18.2547 6.82438 18.6368C6.68354 18.7652 6.53022 19.0113 7.19285 18.9012C7.85549 18.791 8.55903 18.6978 8.68357 18.8607C8.80811 19.0236 8.44114 19.2732 8.6713 19.4864C8.82475 19.6285 9.3408 19.1764 10.2194 18.1301L13.7237 16.5682L12.6044 15.1042ZM27.5619 15.4547L25.076 15.4621C26.6109 19.208 27.4396 21.1955 27.5619 21.4248C27.8372 21.9405 27.2547 22.7259 27.0056 23.1479C27.8169 23.4224 27.7304 22.406 28.7539 22.766C29.688 23.0945 30.3986 23.6898 31.4779 23.1864C31.6106 23.1245 31.756 22.8914 31.4047 22.7093C30.5294 22.2556 29.2681 21.4615 29.0977 21.2002C28.8653 20.8437 28.3533 18.9286 27.5619 15.4547Z" fill="#FBC4C0"/>
<path fill-rule="evenodd" clip-rule="evenodd" d="M20.4973 7.5689L19.4686 7.43552C17.6976 10.78 14.6056 13.819 10.1926 16.5523L13.5273 19.615C17.9398 15.7231 20.6596 11.7077 20.4973 7.5689Z" fill="#618E5A"/>
<path fill-rule="evenodd" clip-rule="evenodd" d="M24.9814 17.3414H15.8216C17.9437 13.4407 19.0048 10.1271 19.0048 7.40058L21.7679 7.08936C23.9394 9.72956 24.5526 12.9802 24.9814 17.3414Z" fill="white"/>
<path fill-rule="evenodd" clip-rule="evenodd" d="M21.8264 7.09083C21.826 7.09034 21.8256 7.08985 21.8253 7.08936H21.6449C21.4291 7.09497 21.1004 7.1051 20.6588 7.11972L19.9911 8.56213C19.9205 10.3208 19.508 13.8649 18.7538 19.1945H24.7583C24.7425 19.5626 24.7166 19.9341 24.6804 20.3091H29.145C28.4772 14.6133 26.0384 10.2067 21.8286 7.08936L21.8264 7.09083V7.09083Z" fill="#7FBB76"/>
<path fill-rule="evenodd" clip-rule="evenodd" d="M24.3617 14.4846C24.1908 16.7792 23.7629 18.3609 23.0781 19.23H24.7567C24.8302 17.5791 24.6985 15.9973 24.3617 14.4846V14.4846Z" fill="black" fill-opacity="0.1"/>
<path fill-rule="evenodd" clip-rule="evenodd" d="M23.4218 16.4421L20.461 15.4016V16.4421H23.4218Z" fill="white" fill-opacity="0.2"/>
</svg>
